<svg xmlns="http://www.w3.org/2000/svg" viewBox="0 0 1200 183.84">
  <path d="M459.56,132.53,420.61,54.47a11.45,11.45,0,0,0-10.08-6.17h-20.3a11.44,11.44,0,0,0-10.08,6.17l-38.8,78.06a2,2,0,0,0,1.8,3H360.6a2.74,2.74,0,0,0,2.55-1.5l8.58-17.15h57.6L437.9,134a2.53,2.53,0,0,0,2.56,1.5h17.45A2.1,2.1,0,0,0,459.56,132.53ZM380.15,99.59,396.39,67a2.36,2.36,0,0,1,2-1.2h4.06a2,2,0,0,1,1.95,1.2l16.25,32.64ZM1200,50.41V63.65a2.15,2.15,0,0,1-2.11,2.1H1162.7v79.09a1.5,1.5,0,0,1-2.48,1.14l-17.51-14.86a6,6,0,0,1-2.12-4.59V65.75h-28a4.27,4.27,0,0,1-3.76-2.4l-6.77-13.54a1,1,0,0,1,.9-1.5h94.75A2.29,2.29,0,0,1,1200,50.41ZM1011.24,67.25V83.34h64.23a8.73,8.73,0,0,1,0,17.45h-64.23v12a5.66,5.66,0,0,0,5.57,5.57h72.34a2.15,2.15,0,0,1,2.11,2.1v13.24a2.27,2.27,0,0,1-2.11,2.11h-78.21a22.31,22.31,0,0,1-22.26-22.26v-54a11.11,11.11,0,0,1,11.13-11.13h89.34a2.15,2.15,0,0,1,2.11,2.11V63.79a2.27,2.27,0,0,1-2.11,2.11H1012.6C1011.84,65.75,1011.24,66.35,1011.24,67.25ZM969.88,51v76.55a10.86,10.86,0,0,1-17.9,8.28L884.45,78.53V133a2.7,2.7,0,0,1-2.7,2.71h-17a2.84,2.84,0,0,1-2.86-2.71V56.57a10.86,10.86,0,0,1,17.9-8.27l67.53,57.3V51.16A2.83,2.83,0,0,1,950,48.3h17A2.73,2.73,0,0,1,969.88,51ZM847.45,91.92a11,11,0,1,1-11-11A10.95,10.95,0,0,1,847.45,91.92Zm-88-24.67V83.34h44.67a8.73,8.73,0,0,1,0,17.45H759.47v12a5.65,5.65,0,0,0,5.56,5.57h72.35a2.15,2.15,0,0,1,2.1,2.1v13.24a2.15,2.15,0,0,1-2.1,2.11H759.17a22.3,22.3,0,0,1-22.26-22.26v-54A11.1,11.1,0,0,1,748,48.45h89.34a2.15,2.15,0,0,1,2.1,2.11V63.79a2.15,2.15,0,0,1-2.1,2.11H760.82C760.07,65.75,759.47,66.35,759.47,67.25Zm-31.89,52.94v13.24a2.15,2.15,0,0,1-2.1,2.1H662.61a22.3,22.3,0,0,1-22.26-22.26V50.41a2.15,2.15,0,0,1,2.1-2.11H661a2.15,2.15,0,0,1,2.11,2.11v62.11a5.66,5.66,0,0,0,5.56,5.57h56.86A2.15,2.15,0,0,1,727.58,120.19ZM628.47,50.41V63.65a2.15,2.15,0,0,1-2.11,2.1H593.57v79.09A1.5,1.5,0,0,1,591.1,146l-17.66-15a6,6,0,0,1-2.13-4.58V65.6H550a4.27,4.27,0,0,1-3.76-2.4l-6.77-13.54c-.3-.6.15-1.35,1.05-1.35h85.88A2.15,2.15,0,0,1,628.47,50.41ZM317.28,91c4.06-1.51,12.33-5.42,12.33-16.55,0-19.1-14.13-26.17-31.13-26.17H233.66a2.15,2.15,0,0,0-2.11,2.11v83a2.15,2.15,0,0,0,2.11,2.1h73.09c10.68-.15,26-6.16,26-25.86C332.77,97.33,321.79,92.22,317.28,91ZM253.81,67.1a1.26,1.26,0,0,1,1.35-1.35h40c4.21,0,13.39,0,13.39,8.72s-9.33,8.72-13.39,8.72H253.81Zm46.32,50.84h-45a1.26,1.26,0,0,1-1.35-1.36V100.64h46.32c4.52,0,11.74,0,11.74,8.72C311.87,118.24,303.59,117.94,300.13,117.94ZM528.6,50.41V63.65a2.15,2.15,0,0,1-2.11,2.1H500.77v79.09A1.5,1.5,0,0,1,498.3,146l-17.66-15a6,6,0,0,1-2.13-4.59V65.6H450.69a4.27,4.27,0,0,1-3.76-2.4l-6.77-13.54a1.11,1.11,0,0,1,1-1.35h85.28A2.15,2.15,0,0,1,528.6,50.41ZM150,62.59C125.91,51.47,91.35,44.41,58.82,47c1.63-10.78,5.65-18.27,12.25-19.85C80.16,25,90.08,31,99.53,41.87c6.19.8,13.53,2.21,18.64,3.39C100.94,12.85,77.82-5.32,60.24,1.38,46.87,6.48,40,24.89,40.84,49.63c-17.42,3.7-31,10.29-39.69,19.76C.72,69.9-.28,71.18.07,71.8c.27.46,1.16-.06,1.54-.32,10.08-7,23-10.86,39.8-13.26,2.4,26.39,13.56,59.85,32.1,86.71-10.15,4-18.65,4.24-23.32-.69-6.43-6.78-6.21-18.35-1.51-32-2.4-5.76-4.85-12.83-6.38-17.84-19.46,31.13-23.63,60.23-9,72.1,11.11,9,30.46,5.75,51.48-7.32,11.92,13.24,24.41,21.7,37,24.49.66.13,2.27.35,2.62-.27.27-.46-.62-1-1-1.17-11.15-5.21-20.91-14.48-31.39-27.84,21.65-15.26,45-41.67,59-71.15,8.52,6.8,13,14,11.06,20.54-2.65,9-12.79,14.55-26.93,17.3-3.8,5-8.69,10.61-12.27,14.45,36.69,1.28,64-9.65,67-28.23C192,93.18,179.51,78.06,157.69,66.4c5.5-16.94,6.58-32,2.73-44.25-.23-.64-.84-2.14-1.55-2.14-.54,0-.53,1-.5,1.48C159.44,33.75,156.29,46.84,150,62.59ZM82.41,140.73C66.91,115.83,58,86.5,58,56.85h0c29.31-1,59.19,5.92,84.84,20.8h0C129,103.53,108.12,126,82.41,140.72Z" fill="#fff"/>
</svg>
