<svg xmlns="http://www.w3.org/2000/svg" viewBox="0 0 150 99"><defs><style>.cls-1{fill:#fff;}</style></defs><path class="cls-1" d="M13.37,72.17c-4.82,3.2-3.21,9.27,7.06,12.14a69.41,69.41,0,0,0,33.38,2.55,15,15,0,0,0,1.61-.31V75.69L44.5,79.2A23.83,23.83,0,0,1,32,79.84c-3.21-1-2.56-2.88,1.29-4.47L55.42,67.7V55.89L24.6,66.43A41.48,41.48,0,0,0,13.37,72.17Zm74.46-47.9v31c13.16,6.39,23.43,0,23.43-16.61,0-16.92-6.09-24.59-23.75-30.66A224.13,224.13,0,0,0,59,0V92.29L81.41,99V21.4c0-3.52,0-6.07,2.57-5.11C87.51,17.25,87.83,20.76,87.83,24.27Zm41.73,40.56a68.67,68.67,0,0,0-28.89-3.51,52.77,52.77,0,0,0-14.44,3.19l-1,.32V77.28l20.86-7.66A23.83,23.83,0,0,1,118.65,69c3.21,1,2.57,2.87-1.29,4.47L85.27,85.27V97.4l44.29-16.28a24.9,24.9,0,0,0,8.67-5.43C140.47,72.49,139.51,68,129.56,64.83Z"/></svg>