<svg xmlns="http://www.w3.org/2000/svg" viewBox="0 0 150 99"><defs><style>.cls-1{fill:#fff;}</style></defs><path class="cls-1" d="M75,14.74c.88-.51,13.18-7.51,22.26-7.51a10.78,10.78,0,0,1,5.63,1.37,49.52,49.52,0,0,0-55.78,0,10.78,10.78,0,0,1,5.63-1.37C61.82,7.23,74.12,14.23,75,14.74Z"/><path class="cls-1" d="M61.54,27.45S48.55,13.83,41.74,14a3.18,3.18,0,0,0-1.59.33v0a49.5,49.5,0,0,0-3.68,66.23,12.6,12.6,0,0,1-1-4.73C35.45,69.88,40.38,54.06,61.54,27.45Z"/><path class="cls-1" d="M108.26,14c-6.81-.21-19.8,13.41-19.8,13.41,21.16,26.61,26.09,42.43,26.09,48.4a12.6,12.6,0,0,1-1,4.73,49.5,49.5,0,0,0-3.68-66.23v0A3.18,3.18,0,0,0,108.26,14Z"/><path class="cls-1" d="M109,82.45c-2-16.47-32.56-41.73-34-42.91C73.56,40.72,43,66,41,82.45a5.82,5.82,0,0,0,1.31,4.22,49.5,49.5,0,0,0,65.38,0A5.82,5.82,0,0,0,109,82.45Z"/></svg>